<svg width="722" height="458" viewBox="0 0 722 458" fill="none" xmlns="http://www.w3.org/2000/svg">
<g clip-path="url(#clip0_609_104)">
<g filter="url(#filter0_i_609_104)">
<rect width="722" height="458" rx="25" fill="url(#paint0_linear_609_104)"/>
</g>
<path d="M226.088 357.624V354.672H229.496C230.184 354.672 230.76 354.536 231.224 354.264C231.704 353.992 232.064 353.616 232.304 353.136C232.56 352.656 232.688 352.104 232.688 351.48C232.688 350.856 232.56 350.304 232.304 349.824C232.064 349.344 231.704 348.976 231.224 348.72C230.76 348.448 230.184 348.312 229.496 348.312H226.088V345.36H229.208C230.68 345.36 231.928 345.6 232.952 346.08C233.992 346.56 234.784 347.248 235.328 348.144C235.872 349.024 236.144 350.072 236.144 351.288V351.672C236.144 352.888 235.872 353.944 235.328 354.84C234.784 355.72 233.992 356.408 232.952 356.904C231.928 357.384 230.68 357.624 229.208 357.624H226.088ZM223.16 363V345.36H226.568V363H223.16ZM241.357 363V345.48H244.693V363H241.357ZM244.213 363V360.12H252.157V363H244.213ZM244.213 355.536V352.656H251.533V355.536H244.213ZM244.213 348.36V345.48H251.965V348.36H244.213ZM261.51 363V348H264.918V363H261.51ZM256.446 348.48V345.48H269.982V348.48H256.446ZM275.102 363V345.36H278.51V363H275.102ZM285.806 363L280.43 355.368H284.246L289.79 363H285.806ZM277.502 357.144V354.384H281.966C282.59 354.384 283.126 354.256 283.574 354C284.038 353.744 284.398 353.384 284.654 352.92C284.91 352.456 285.038 351.928 285.038 351.336C285.038 350.728 284.91 350.192 284.654 349.728C284.398 349.264 284.038 348.904 283.574 348.648C283.126 348.392 282.59 348.264 281.966 348.264H277.502V345.36H281.606C283.014 345.36 284.23 345.568 285.254 345.984C286.294 346.4 287.094 347.032 287.654 347.88C288.214 348.728 288.494 349.792 288.494 351.072V351.456C288.494 352.752 288.206 353.816 287.63 354.648C287.07 355.48 286.278 356.104 285.254 356.52C284.23 356.936 283.014 357.144 281.606 357.144H277.502ZM301.859 363.456C300.227 363.456 298.851 363.144 297.731 362.52C296.611 361.896 295.755 361.024 295.163 359.904C294.587 358.768 294.299 357.44 294.299 355.92V345.48H297.707V356.112C297.707 356.944 297.867 357.68 298.187 358.32C298.507 358.944 298.971 359.432 299.579 359.784C300.203 360.12 300.963 360.288 301.859 360.288C302.739 360.288 303.483 360.12 304.091 359.784C304.715 359.432 305.179 358.944 305.483 358.32C305.803 357.696 305.963 356.96 305.963 356.112V345.48H309.371V355.92C309.371 357.44 309.083 358.768 308.507 359.904C307.947 361.024 307.107 361.896 305.987 362.52C304.867 363.144 303.491 363.456 301.859 363.456ZM321.738 363.456C320.186 363.456 318.874 363.208 317.802 362.712C316.746 362.216 315.938 361.536 315.378 360.672C314.818 359.792 314.538 358.8 314.538 357.696H317.874C317.874 358.16 318.002 358.616 318.258 359.064C318.514 359.496 318.922 359.848 319.482 360.12C320.058 360.392 320.81 360.528 321.738 360.528C322.57 360.528 323.266 360.408 323.826 360.168C324.386 359.928 324.802 359.616 325.074 359.232C325.346 358.832 325.482 358.384 325.482 357.888C325.482 357.264 325.218 356.768 324.69 356.4C324.162 356.016 323.346 355.776 322.242 355.68L320.706 355.56C319.026 355.416 317.682 354.896 316.674 354C315.682 353.088 315.186 351.888 315.186 350.4C315.186 349.28 315.45 348.32 315.978 347.52C316.506 346.704 317.242 346.08 318.186 345.648C319.146 345.2 320.266 344.976 321.546 344.976C322.874 344.976 324.018 345.208 324.978 345.672C325.938 346.136 326.682 346.792 327.21 347.64C327.738 348.472 328.002 349.456 328.002 350.592H324.666C324.666 350.112 324.546 349.672 324.306 349.272C324.082 348.856 323.738 348.528 323.274 348.288C322.826 348.032 322.25 347.904 321.546 347.904C320.874 347.904 320.314 348.016 319.866 348.24C319.418 348.464 319.082 348.768 318.858 349.152C318.634 349.536 318.522 349.952 318.522 350.4C318.522 350.944 318.722 351.424 319.122 351.84C319.522 352.24 320.154 352.472 321.018 352.536L322.554 352.68C323.802 352.776 324.898 353.04 325.842 353.472C326.786 353.904 327.514 354.488 328.026 355.224C328.554 355.96 328.818 356.848 328.818 357.888C328.818 358.992 328.53 359.968 327.954 360.816C327.378 361.648 326.554 362.296 325.482 362.76C324.426 363.224 323.178 363.456 321.738 363.456ZM344.769 363.12V360.384H349.161C349.961 360.384 350.569 360.168 350.985 359.736C351.401 359.288 351.609 358.68 351.609 357.912C351.609 357.144 351.401 356.552 350.985 356.136C350.569 355.704 349.961 355.488 349.161 355.488H344.769V353.4H348.921C350.089 353.4 351.129 353.544 352.041 353.832C352.969 354.104 353.689 354.568 354.201 355.224C354.729 355.88 354.993 356.76 354.993 357.864V358.2C354.993 359.24 354.761 360.128 354.297 360.864C353.849 361.584 353.169 362.144 352.257 362.544C351.361 362.928 350.249 363.12 348.921 363.12H344.769ZM341.913 363.12V345.36H345.249V363.12H341.913ZM344.769 354.936V352.848H348.513C349.329 352.848 349.929 352.632 350.313 352.2C350.697 351.768 350.889 351.192 350.889 350.472C350.889 349.752 350.697 349.176 350.313 348.744C349.929 348.312 349.329 348.096 348.513 348.096H344.769V345.36H348.201C350.185 345.36 351.689 345.776 352.713 346.608C353.753 347.44 354.273 348.632 354.273 350.184V350.52C354.273 351.608 354.009 352.48 353.481 353.136C352.969 353.776 352.257 354.24 351.345 354.528C350.433 354.8 349.385 354.936 348.201 354.936H344.769ZM368.416 363V345.48H373.072L377.464 355.944H377.896L382.264 345.48H386.992V363H383.608V348.048L384.04 348.096L379.312 359.424H375.832L371.08 348.096L371.536 348.048V363H368.416ZM391.987 363L397.963 345.48H403.531L409.675 363H406.171L400.963 347.808L402.187 348.336H399.187L400.435 347.808L395.395 363H391.987ZM396.163 358.344L397.243 355.464H404.347L405.403 358.344H396.163ZM421.893 363.456C420.309 363.456 418.949 363.176 417.813 362.616C416.677 362.056 415.749 361.328 415.029 360.432C414.325 359.536 413.805 358.56 413.469 357.504C413.133 356.448 412.965 355.432 412.965 354.456V353.928C412.965 352.84 413.133 351.768 413.469 350.712C413.821 349.656 414.357 348.696 415.077 347.832C415.797 346.968 416.709 346.28 417.813 345.768C418.933 345.24 420.253 344.976 421.773 344.976C423.357 344.976 424.733 345.264 425.901 345.84C427.085 346.4 428.029 347.2 428.733 348.24C429.437 349.264 429.861 350.464 430.005 351.84H426.573C426.445 351.04 426.157 350.368 425.709 349.824C425.277 349.264 424.725 348.848 424.053 348.576C423.381 348.288 422.621 348.144 421.773 348.144C420.909 348.144 420.141 348.296 419.469 348.6C418.797 348.888 418.237 349.304 417.789 349.848C417.341 350.392 416.997 351.032 416.757 351.768C416.533 352.504 416.421 353.32 416.421 354.216C416.421 355.08 416.533 355.88 416.757 356.616C416.997 357.352 417.349 358 417.813 358.56C418.277 359.104 418.845 359.528 419.517 359.832C420.205 360.136 420.997 360.288 421.893 360.288C423.205 360.288 424.309 359.968 425.205 359.328C426.117 358.672 426.669 357.76 426.861 356.592H430.293C430.133 357.84 429.709 358.984 429.021 360.024C428.333 361.064 427.389 361.896 426.189 362.52C424.989 363.144 423.557 363.456 421.893 363.456ZM447.065 363V345.48H450.473V363H447.065ZM435.569 363V345.48H438.977V363H435.569ZM438.353 355.728V352.728H447.689V355.728H438.353ZM455.46 363L461.436 345.48H467.004L473.148 363H469.644L464.436 347.808L465.66 348.336H462.66L463.908 347.808L458.868 363H455.46ZM459.636 358.344L460.716 355.464H467.82L468.876 358.344H459.636ZM481.079 363.096V359.928H484.703C485.615 359.928 486.423 359.792 487.127 359.52C487.847 359.232 488.455 358.832 488.951 358.32C489.447 357.808 489.823 357.208 490.079 356.52C490.351 355.816 490.487 355.04 490.487 354.192C490.487 353.312 490.351 352.528 490.079 351.84C489.823 351.136 489.447 350.536 488.951 350.04C488.455 349.544 487.847 349.168 487.127 348.912C486.423 348.656 485.615 348.528 484.703 348.528H481.079V345.36H484.487C486.071 345.36 487.455 345.592 488.639 346.056C489.823 346.52 490.807 347.16 491.591 347.976C492.375 348.776 492.959 349.696 493.343 350.736C493.743 351.76 493.943 352.824 493.943 353.928V354.456C493.943 355.512 493.743 356.552 493.343 357.576C492.959 358.6 492.375 359.528 491.591 360.36C490.807 361.192 489.823 361.856 488.639 362.352C487.455 362.848 486.071 363.096 484.487 363.096H481.079ZM478.151 363.096V345.36H481.559V363.096H478.151ZM507.626 363.456C506.042 363.456 504.666 363.176 503.498 362.616C502.346 362.056 501.386 361.328 500.618 360.432C499.866 359.52 499.298 358.544 498.914 357.504C498.546 356.448 498.362 355.432 498.362 354.456V353.928C498.362 352.856 498.554 351.792 498.938 350.736C499.322 349.664 499.898 348.696 500.666 347.832C501.45 346.968 502.418 346.28 503.57 345.768C504.722 345.24 506.074 344.976 507.626 344.976C509.162 344.976 510.506 345.24 511.658 345.768C512.81 346.28 513.77 346.968 514.538 347.832C515.322 348.696 515.906 349.664 516.29 350.736C516.674 351.792 516.866 352.856 516.866 353.928V354.456C516.866 355.432 516.674 356.448 516.29 357.504C515.922 358.544 515.354 359.52 514.586 360.432C513.834 361.328 512.874 362.056 511.706 362.616C510.554 363.176 509.194 363.456 507.626 363.456ZM507.626 360.288C508.522 360.288 509.322 360.128 510.026 359.808C510.746 359.488 511.354 359.048 511.85 358.488C512.362 357.912 512.746 357.264 513.002 356.544C513.274 355.808 513.41 355.032 513.41 354.216C513.41 353.336 513.274 352.528 513.002 351.792C512.746 351.056 512.362 350.416 511.85 349.872C511.354 349.328 510.746 348.904 510.026 348.6C509.306 348.296 508.506 348.144 507.626 348.144C506.73 348.144 505.922 348.296 505.202 348.6C504.482 348.904 503.866 349.328 503.354 349.872C502.858 350.416 502.474 351.056 502.202 351.792C501.946 352.528 501.818 353.336 501.818 354.216C501.818 355.032 501.946 355.808 502.202 356.544C502.474 357.264 502.858 357.912 503.354 358.488C503.866 359.048 504.482 359.488 505.202 359.808C505.922 360.128 506.73 360.288 507.626 360.288Z" fill="#FEFBFF"/>
<path fill-rule="evenodd" clip-rule="evenodd" d="M94.6654 319.851C94.6654 319.852 94.6657 319.826 94.6766 319.771C94.6871 319.717 94.7054 319.646 94.7347 319.559C94.7935 319.385 94.8901 319.165 95.0334 318.917C95.32 318.421 95.7759 317.841 96.4342 317.301C97.733 316.235 99.8636 315.292 103.14 315.533C116.1 316.484 123.415 325.41 123.415 332.161V372.168C123.415 372.805 123.268 373.099 123.132 373.241C123.004 373.375 122.718 373.546 122.028 373.546H114.306C113.616 373.546 113.33 373.375 113.202 373.241C113.066 373.1 112.919 372.805 112.919 372.168V335.238C112.919 332.828 111.735 330.421 109.988 328.634C108.238 326.842 105.817 325.566 103.213 325.566H94.6654V319.851ZM103.213 327.566H94.6654V372.168C94.6654 373.162 94.4817 374.108 93.7928 374.763C93.1156 375.407 92.1813 375.546 91.2784 375.546H83.4154C82.6084 375.546 81.7233 375.389 81.0382 374.792C80.3257 374.171 80.0284 373.251 80.0284 372.168V334.819C80.0284 332.956 81.0921 330.668 82.6635 328.878C84.2482 327.074 86.5354 325.566 89.1714 325.566H92.6654V319.851C92.6654 319.284 92.9171 318.582 93.3016 317.917C93.7056 317.217 94.317 316.45 95.1659 315.754C96.8815 314.347 99.525 313.262 103.287 313.538C117.005 314.545 125.415 324.098 125.415 332.161V372.168C125.415 373.069 125.212 373.963 124.575 374.626C123.931 375.297 123.024 375.546 122.028 375.546H114.306C113.311 375.546 112.403 375.297 111.759 374.626C111.123 373.963 110.919 373.069 110.919 372.168V335.238C110.919 333.463 110.026 331.534 108.558 330.031C107.093 328.532 105.161 327.566 103.213 327.566ZM89.1714 327.566H92.6654V372.168C92.6654 372.991 92.498 373.235 92.4146 373.314C92.3196 373.404 92.0604 373.546 91.2784 373.546H83.4154C82.8182 373.546 82.5098 373.422 82.3524 373.285C82.2226 373.171 82.0284 372.902 82.0284 372.168V334.819C82.0284 333.604 82.7896 331.766 84.1664 330.198C85.5299 328.645 87.3142 327.566 89.1714 327.566ZM164.111 381.128C164.111 381.13 164.11 381.156 164.1 381.209C164.089 381.262 164.071 381.333 164.042 381.42C163.983 381.595 163.886 381.814 163.743 382.063C163.457 382.559 163.001 383.139 162.342 383.679C161.043 384.744 158.913 385.687 155.636 385.447C142.676 384.495 135.361 375.569 135.361 368.819V328.812C135.361 328.175 135.508 327.88 135.644 327.739C135.772 327.605 136.058 327.434 136.748 327.434H144.471C145.16 327.434 145.446 327.605 145.575 327.739C145.71 327.88 145.858 328.175 145.858 328.812V365.741C145.858 368.151 147.042 370.559 148.788 372.346C150.539 374.137 152.96 375.414 155.563 375.414H164.111V381.128V381.128ZM155.563 373.414H164.111V328.812C164.111 327.817 164.295 326.872 164.984 326.216C165.661 325.572 166.595 325.434 167.498 325.434H175.361C176.168 325.434 177.053 325.59 177.738 326.187C178.451 326.808 178.748 327.728 178.748 328.812V366.161C178.748 368.023 177.684 370.312 176.113 372.101C174.528 373.906 172.241 375.414 169.605 375.414H166.111V381.128C166.111 381.695 165.859 382.397 165.475 383.063C165.071 383.762 164.459 384.529 163.611 385.225C161.895 386.632 159.252 387.718 155.49 387.441C141.772 386.434 133.361 376.882 133.361 368.819V328.812C133.361 327.91 133.565 327.016 134.201 326.353C134.845 325.683 135.753 325.434 136.748 325.434H144.471C145.466 325.434 146.373 325.683 147.017 326.353C147.654 327.016 147.858 327.91 147.858 328.812V365.741C147.858 367.516 148.75 369.445 150.219 370.948C151.683 372.447 153.615 373.414 155.563 373.414ZM169.605 373.414H166.111V328.812C166.111 327.988 166.279 327.745 166.362 327.666C166.457 327.575 166.716 327.434 167.498 327.434H175.361C175.958 327.434 176.267 327.558 176.424 327.695C176.554 327.808 176.748 328.077 176.748 328.812V366.161C176.748 367.376 175.987 369.214 174.61 370.782C173.247 372.334 171.462 373.414 169.605 373.414Z" fill="#FEFBFF"/>
<circle cx="581.889" cy="86.4971" r="45.7505" fill="#E71924"/>
<circle cx="637.647" cy="86.4971" r="45.7505" fill="#F99F19"/>
<path fill-rule="evenodd" clip-rule="evenodd" d="M609.768 122.595C620.636 114.23 627.64 101.092 627.64 86.3172C627.64 71.5427 620.636 58.404 609.768 50.0396C598.9 58.404 591.897 71.5427 591.897 86.3172C591.897 101.092 598.9 114.23 609.768 122.595Z" fill="#F26520"/>
<rect x="80.4209" y="156.195" width="97.9347" height="69.3406" rx="6.07624" fill="url(#paint1_linear_609_104)" stroke="#211F21" stroke-width="2.14455"/>
<path d="M80.7783 178.713H110.087" stroke="#211F21" stroke-width="2" stroke-linecap="round"/>
<path d="M80.7783 200.873H109.445" stroke="#211F21" stroke-width="2" stroke-linecap="round"/>
<path d="M149.404 200.873H177.998" stroke="#211F21" stroke-width="2" stroke-linecap="round"/>
<path d="M148.975 179.428H177.998" stroke="#211F21" stroke-width="2" stroke-linecap="round"/>
<circle cx="129.388" cy="166.561" r="2.14455" fill="#211F21"/>
<path d="M231.053 205.824C236.325 192.59 236.926 185.119 231.053 171.645C230.43 170.215 231.053 169.024 231.768 168.786C232.483 168.547 233.589 168.786 234.27 170.215C241.188 184.73 240.767 192.87 234.627 207.387C233.912 208.817 232.575 208.998 231.768 208.46C230.824 207.831 230.608 206.941 231.053 205.824Z" fill="#FEFBFF"/>
<path d="M223.547 172.717C222.832 173.075 222.375 174.43 223.19 175.934C227.999 185.94 227.801 191.662 223.19 202.026C222.686 203.071 222.998 204.226 223.905 204.528C224.977 204.886 225.913 204.125 226.406 203.098C231.701 192.084 231.84 185.756 226.406 174.147C225.905 173.075 224.619 172.181 223.547 172.717Z" fill="#FEFBFF"/>
<path d="M216.399 177.364C215.326 177.721 215.136 178.908 215.684 180.223C218.53 187.063 218.979 190.898 215.684 197.737C215.041 198.929 214.83 200.193 216.041 200.596C217.252 201 218.126 200.363 218.543 199.524C222.766 191.149 221.82 186.454 218.543 178.079C218.263 177.364 217.471 177.006 216.399 177.364Z" fill="#FEFBFF"/>
<path d="M208.893 180.223C207.82 180.938 207.668 182.022 208.535 183.797C210.344 187.564 210.303 189.68 208.535 193.448C207.713 195.11 207.463 197.022 208.893 197.38C210.322 197.737 210.957 197.229 211.752 195.235C213.578 189.987 213.756 187.02 211.752 181.653C211.291 180.261 210.322 179.508 208.893 180.223Z" fill="#FEFBFF"/>
<path d="M145.115 170.849C142.372 161.508 137.251 156.91 129.03 156.91C119.023 156.91 116.194 164.53 110.087 178.355C113.998 187.507 114.039 192.437 110.087 200.873C116.494 219.254 121.24 224.915 129.388 224.821C140.111 224.821 143.163 215.733 149.046 200.873C145.952 192.497 145.622 187.875 148.5 179.5" stroke="#211F21" stroke-width="2" stroke-linecap="round"/>
</g>
<defs>
<filter id="filter0_i_609_104" x="0" y="0" width="725" height="461" filterUnits="userSpaceOnUse" color-interpolation-filters="sRGB">
<feFlood flood-opacity="0" result="BackgroundImageFix"/>
<feBlend mode="normal" in="SourceGraphic" in2="BackgroundImageFix" result="shape"/>
<feColorMatrix in="SourceAlpha" type="matrix" values="0 0 0 0 0 0 0 0 0 0 0 0 0 0 0 0 0 0 127 0" result="hardAlpha"/>
<feOffset dx="3" dy="3"/>
<feGaussianBlur stdDeviation="3"/>
<feComposite in2="hardAlpha" operator="arithmetic" k2="-1" k3="1"/>
<feColorMatrix type="matrix" values="0 0 0 0 1 0 0 0 0 1 0 0 0 0 1 0 0 0 0.25 0"/>
<feBlend mode="normal" in2="shape" result="effect1_innerShadow_609_104"/>
</filter>
<linearGradient id="paint0_linear_609_104" x1="610.09" y1="61.83" x2="354.096" y2="526.995" gradientUnits="userSpaceOnUse">
<stop stop-color="#A950C4"/>
<stop offset="1" stop-color="#82269E"/>
</linearGradient>
<linearGradient id="paint1_linear_609_104" x1="171" y1="165" x2="87" y2="221" gradientUnits="userSpaceOnUse">
<stop stop-color="#F4F4F4"/>
<stop offset="1" stop-color="#D6D6D6"/>
</linearGradient>
<clipPath id="clip0_609_104">
<rect width="722" height="458" fill="white"/>
</clipPath>
</defs>
</svg>
